PathFileType	4	(X/Y/Z)	/home/utkubuntu/opensim/opensim_mycode/release_code/bioimitation/imitation_envs/data/02905/02905_PRE/experimental_data/task.trc
DataRate	CameraRate	NumFrames	NumMarkers	Units	OrigDataRate	OrigDataStartFrame	OrigNumFrames
100.000000	100.000000	4	53	mm	100.000000	50	406
Frame#	Time	C7			CLAV			LANK			LASI			LBHD			LELB			LFHD			LFIN			LFMH			LHEE			LKNE			LKNI			LMED			LMET			LMIF			LPSI			LSHO			LTAD			LTHAP			LTHI			LTIAD			LTIB			LTOE			LTTU			LWRA			LWRB			RANK			RASI			RBAK			RBHD			RELB			RFHD			RFIN			RFMH			RHEE			RKNE			RKNI			RMED			RMET			RMIF			RPSI			RSHO			RTAD			RTHAP			RTHI			RTIAD			RTIB			RTOE			RTTU			RWRA			RWRB			STRN			T10			
		X1	Y1	Z1	X2	Y2	Z2	X3	Y3	Z3	X4	Y4	Z4	X5	Y5	Z5	X6	Y6	Z6	X7	Y7	Z7	X8	Y8	Z8	X9	Y9	Z9	X10	Y10	Z10	X11	Y11	Z11	X12	Y12	Z12	X13	Y13	Z13	X14	Y14	Z14	X15	Y15	Z15	X16	Y16	Z16	X17	Y17	Z17	X18	Y18	Z18	X19	Y19	Z19	X20	Y20	Z20	X21	Y21	Z21	X22	Y22	Z22	X23	Y23	Z23	X24	Y24	Z24	X25	Y25	Z25	X26	Y26	Z26	X27	Y27	Z27	X28	Y28	Z28	X29	Y29	Z29	X30	Y30	Z30	X31	Y31	Z31	X32	Y32	Z32	X33	Y33	Z33	X34	Y34	Z34	X35	Y35	Z35	X36	Y36	Z36	X37	Y37	Z37	X38	Y38	Z38	X39	Y39	Z39	X40	Y40	Z40	X41	Y41	Z41	X42	Y42	Z42	X43	Y43	Z43	X44	Y44	Z44	X45	Y45	Z45	X46	Y46	Z46	X47	Y47	Z47	X48	Y48	Z48	X49	Y49	Z49	X50	Y50	Z50	X51	Y51	Z51	X52	Y52	Z52	X53	Y53	Z53	

51	0.5	-1042.0009765625	1435.64599609375	-187.59700012207	-951.6630249023438	1327.0400390625	-199.2660064697263	-861.1859741210938	83.08599853515631	-281.4630126953125	-981.9530029296875	925.2769775390626	-304.7600097656248	-990.3189697265625	1535.254028320312	-270.6099853515622	-1110.954956054688	1037.56298828125	-403.5889892578123	-835.135986328125	1577.635986328125	-259.1659851074215	-1085.366943359375	756.0919799804689	-425.5830078124998	-712.3629760742188	52.92900085449224	-235.8569946289062	-900.905029296875	40.93799972534185	-238.3710021972656	-871.4140014648438	472.5490112304688	-323.0629882812499	-840.802001953125	471.7659912109376	-210.2749938964843	-840.1690063476562	99.46800231933598	-205.4259948730468	-754.0650024414062	35.56499862670906	-308.3169860839844	-774.6599731445312	85.83899688720709	-265.7030029296875	-1132.512939453125	941.4810180664062	-223.9450073242186	-1049.462036132812	1359.93994140625	-357.8299865722653	-817.3880004882812	563.2030029296876	-276.0870056152343	-883.2509765625	721.7479858398439	-270.4360046386717	-911.0120239257812	559.1799926757814	-372.6380004882811	-819.2329711914062	220.1759948730469	-258.1629943847656	-885.5679931640625	297.2820129394532	-359.7969970703124	-726.1179809570312	52.18099975585944	-276.3299865722656	-805.6610107421875	400.3389892578126	-275.1879882812499	-1054.85595703125	797.1060180664064	-383.5490112304686	-1114.264038085938	803.7830200195314	-422.6640014648436	-1225.928955078125	74.5749969482422	-91.75900268554686	-954.0469970703125	935.052001953125	-62.34199905395487	-1091.192016601562	1317.553955078125	-50.39599990844697	-983.7550048828125	1522.048950195312	-110.0029983520504	-1044.909057617188	1055.964965820312	74.74700164794945	-835.0999755859375	1565.318969726562	-134.4589996337887	-894.7739868164062	788.0150146484375	70.74900054931658	-1089.89404296875	32.63299942016605	-160.9960021972656	-1284.9169921875	39.79800033569339	-121.2269973754883	-1109.378051757812	465.8450012207031	-50.0620002746581	-1123.484985351562	465.8999938964844	-169.5939941406249	-1225.52197265625	93.24800109863286	-173.9219970703125	-1126.0419921875	21.82200050354005	-66.17800140380859	-1137.718994140625	64.4580001831055	-126.911003112793	-1120.505981445312	955.2520141601562	-120.4639968872068	-994.14599609375	1360.357055664062	-10.79699993133515	-1023.4169921875	535.02001953125	-99.80599975585926	-959.281005859375	694.5479736328125	-80.52500152587875	-1073.02099609375	576.4929809570312	5.350999832153448	-1137.718017578125	254.25	-118.370002746582	-1178.406005859375	287.5979919433594	-4.63899993896478	-1093.173950195312	34.7330017089844	-115.2880020141601	-1089.27001953125	387.9739990234375	-109.3710021972655	-911.3909912109375	841.3090209960938	24.86599922180195	-947.1279907226562	822.3900146484375	81.61199951171893	-936.7650146484375	1169.531005859375	-200.2440032958982	-1138.422973632812	1137.816040039062	-170.6750030517576	
52	0.51	-1030.678955078125	1433.8330078125	-189.0619964599606	-940.323974609375	1325.223022460938	-200.6479949951169	-828.1190185546875	80.52799987792974	-284.7690124511719	-969.3709716796875	923.1370239257814	-305.169006347656	-979.1829833984375	1533.365966796875	-272.305999755859	-1103.76904296875	1036.281982421875	-403.4200134277341	-823.9459838867188	1575.683959960938	-261.316986083984	-1083.823974609375	754.1740112304689	-424.615997314453	-678.1430053710938	57.43700027465825	-238.2559967041016	-865.4439697265625	36.25799942016607	-241.9329986572266	-861.2880249023438	469.4240112304688	-323.2330017089843	-829.8829956054688	469.0580139160157	-210.4530029296874	-808.2119750976562	97.71900177001957	-208.6739959716797	-718.3359985351562	38.34799957275398	-311.0820007324219	-741.47998046875	87.30100250244146	-268.4150085449219	-1120.515991210938	939.6300048828125	-225.1840057373045	-1038.48095703125	1357.828979492188	-359.1419982910153	-807.8560180664062	559.8309936523439	-277.4609985351561	-872.1309814453125	718.3610229492189	-272.1510009765623	-904.4749755859375	554.6240234375001	-371.980987548828	-794.5770263671875	219.8489990234376	-260.3080139160156	-865.9089965820312	293.6549987792969	-361.2730102539062	-691.3740234375	56.10699844360358	-278.7409973144531	-792.0469970703125	400.0409851074219	-275.9219970703124	-1052.56103515625	794.8109741210939	-382.7330017089842	-1111.493041992188	802.6649780273439	-422.1489868164061	-1225.501953125	75.76200103759767	-92.07299804687499	-942.916015625	933.1259765625	-62.45100021362284	-1079.733032226562	1315.808959960938	-51.5639991760251	-972.2349853515625	1520.453002929688	-111.7119979858395	-1031.663940429688	1054.447021484375	74.52400207519554	-823.5919799804688	1563.587036132812	-136.5599975585934	-880.0159912109375	787.4730224609375	69.7669982910158	-1090.015014648438	32.61700057983402	-161.0229949951172	-1284.72998046875	41.65999984741214	-121.7829971313476	-1103.925048828125	465.5989990234375	-50.01399993896474	-1117.2080078125	465.7330017089844	-169.6320037841796	-1224.548950195312	94.61399841308598	-174.1100006103515	-1126.251953125	21.90600013732912	-66.38500213623047	-1137.411987304688	64.8320007324219	-126.9459991455078	-1109.109985351562	953.3980102539062	-121.7149963378904	-982.6799926757812	1358.7919921875	-12.14999961852997	-1016.726013183594	533.864990234375	-99.64299774169911	-950.81298828125	692.6409912109375	-80.14600372314437	-1066.483032226562	575.9130249023438	5.477000236511358	-1135.598999023438	254.1399993896485	-118.2409973144531	-1175.535034179688	288.3049926757812	-4.76999998092645	-1093.046020507812	34.7080001831055	-115.2310028076172	-1084.640991210938	387.3739929199219	-109.0660018920898	-897.4539794921875	840.5130004882812	23.90399932861347	-932.3140258789062	821.4840087890625	80.88800048828143	-925.1370239257812	1167.738037109375	-201.2649993896482	-1126.904052734375	1135.858032226562	-171.7760009765622	
53	0.52	-1019.2919921875	1432.0439453125	-190.6640014648434	-928.9110107421875	1323.421997070312	-202.0789947509763	-796.4650268554688	79.06999969482428	-287.9490051269531	-956.5900268554688	921.0650024414064	-305.575988769531	-967.9569702148438	1531.511962890625	-274.0690002441403	-1096.390014648438	1034.996948242188	-403.2810058593748	-812.6849975585938	1573.786987304688	-263.4710083007809	-1082.008056640625	752.3540039062501	-423.553985595703	-645.6959838867188	62.51499938964849	-240.593994140625	-831.4719848632812	33.07199859619146	-245.3240051269531	-851.5079956054688	466.2250061035157	-323.2569885253905	-819.3660278320312	466.2749938964844	-210.4320068359374	-777.60400390625	97.01599884033207	-211.8139953613281	-684.3790283203125	41.77199935913093	-313.7269897460938	-709.9030151367188	89.45899963378912	-271.0899963378906	-1108.338012695312	937.8070068359375	-226.5489959716795	-1027.305053710938	1355.66796875	-360.5870056152341	-798.5800170898438	556.2390136718751	-278.9119873046874	-861.0900268554688	714.6469726562501	-274.0270080566405	-898.52099609375	549.7550048828126	-371.1000061035155	-770.916015625	220.145004272461	-262.3210144042968	-846.905029296875	290.5840148925782	-362.5899963378906	-658.3900146484375	60.6409988403321	-281.0769958496094	-778.97900390625	399.7839965820313	-276.4169921874999	-1049.923950195312	792.6649780273439	-381.8619995117186	-1108.39501953125	801.6079711914064	-421.553985595703	-1224.909057617188	77.15000152587892	-92.38400268554686	-931.7069702148438	931.3300170898438	-62.58499908447245	-1068.280029296875	1314.092041015625	-52.86700057983369	-960.6589965820312	1518.848022460938	-113.4840011596676	-1018.552978515625	1052.891967773438	74.05200195312523	-812.0390014648438	1561.8759765625	-138.6770019531247	-865.4979858398438	786.833984375	68.85700225830095	-1089.995971679688	32.61199951171879	-161.0019989013672	-1284.454956054688	43.86100006103518	-122.3619995117187	-1097.833984375	465.4020080566406	-50.0250015258788	-1110.441040039062	465.6210021972657	-169.7400054931639	-1223.4189453125	96.17099761962895	-174.2839965820312	-1126.45703125	22.01399993896486	-66.64499664306641	-1136.949951171875	65.30400085449222	-126.9179992675781	-1097.531005859375	951.56298828125	-123.1409988403318	-971.2509765625	1357.248046875	-13.57299995422333	-1009.487976074219	532.7789916992188	-99.5240020751952	-941.916015625	690.8599853515625	-79.7829971313475	-1059.244995117188	575.333984375	5.519999980926642	-1132.85595703125	254.1629943847657	-118.1669998168945	-1172.255981445312	289.1440124511719	-4.971000194549497	-1092.961059570312	34.66999816894534	-115.2149963378906	-1079.493041992188	386.8059997558594	-108.8050003051757	-883.6010131835938	839.6309814453125	22.99500083923358	-917.6950073242188	820.5230102539062	80.13899993896503	-913.4310302734375	1165.946044921875	-202.2960052490232	-1115.31005859375	1133.932006835938	-173.0500030517576	
54	0.53	-1007.843017578125	1430.317993164062	-192.4219970703122	-917.4110107421875	1321.682983398438	-203.5559997558591	-766.635009765625	78.59799957275398	-290.885009765625	-943.655029296875	919.1250000000001	-305.9960021972654	-956.6270141601562	1529.740966796875	-275.9049987792965	-1088.786010742188	1033.732055664062	-403.1839904785154	-801.3319702148438	1571.969970703125	-265.628997802734	-1079.838989257812	750.6660156250001	-422.4089965820311	-615.3309936523438	67.93699645996099	-242.8500061035156	-799.656982421875	31.28100013732916	-248.4759979248047	-841.9349975585938	463.0870056152344	-323.2120056152343	-809.155029296875	463.5419921875001	-210.2579956054686	-748.6950073242188	97.24099731445317	-214.7270050048828	-652.5800170898438	45.60400009155281	-316.1910095214844	-680.3189697265625	92.15000152587896	-273.6889953613281	-1095.984008789062	936.0369873046875	-228.0420074462889	-1015.9169921875	1353.482055664062	-362.169006347656	-789.5040283203125	552.6110229492189	-280.3099975585936	-850.1439819335938	710.6920166015626	-275.917999267578	-892.697998046875	544.7750244140626	-370.1589965820311	-748.4949951171875	220.968002319336	-264.1990051269531	-828.8410034179688	288.1130065917969	-363.7030029296874	-627.552978515625	65.5400009155274	-283.3219909667969	-766.3779907226562	399.6189880371094	-276.7390136718749	-1046.89599609375	790.6849975585939	-380.970001220703	-1104.968017578125	800.6380004882814	-420.886993408203	-1224.14599609375	78.76300048828126	-92.62000274658202	-920.4089965820312	929.676025390625	-62.75600051879862	-1056.843017578125	1312.447021484375	-54.31600189208955	-949.0239868164062	1517.287963867188	-115.3249969482418	-1005.554992675781	1051.339965820312	73.32900238037132	-800.427001953125	1560.218017578125	-140.8090057373043	-851.2429809570312	786.1220092773438	68.02899932861345	-1089.8759765625	32.61299896240238	-160.9329986572266	-1284.074951171875	46.40999984741214	-122.8560028076172	-1091.109985351562	465.2430114746094	-50.12200164794911	-1103.125	465.5499877929688	-169.9309997558593	-1222.131958007812	97.89800262451176	-174.4290008544922	-1126.599975585938	22.13400077819826	-66.93199920654297	-1136.324951171875	65.84700012207034	-126.8150024414062	-1085.739990234375	949.7789916992188	-124.7369995117185	-959.8770141601562	1355.77099609375	-15.07400035858124	-1001.6669921875	531.7119750976562	-99.45300292968739	-932.5250244140625	689.177978515625	-79.46399688720687	-1051.284057617188	574.7459716796875	5.434000015258917	-1129.465942382812	254.311996459961	-118.1060028076171	-1168.571044921875	290.1470031738281	-5.217999935150082	-1092.906005859375	34.62300109863284	-115.1969985961914	-1073.807006835938	386.2470092773438	-108.6299972534179	-869.864013671875	838.6829833984375	22.13800048828143	-903.3629760742188	819.5339965820312	79.40299987792987	-901.6599731445312	1164.191040039062	-203.3240051269529	-1103.616943359375	1132.068969726562	-174.4799957275388	
